<?xml version="1.0" encoding="UTF-8" standalone="no"?><svg xmlns="http://www.w3.org/2000/svg" version="1.2" viewBox="0 0 540 180" height="240" width="720"><g transform="translate(-147.60076,-375.28907)"><path d="m 346.16016,484.69922 c 3.42578,0 6.5625,-0.63672 9.40234,-1.92188 2.84375,-1.27734 4.95312,-2.99218 6.33594,-5.14062 0.76953,-1.07813 1.15234,-2.125 1.15234,-3.14844 v -7.91406 c -4.09766,-1.58594 -8.54687,-2.37891 -13.36328,-2.37891 -2.25,0 -4.28516,0.23438 -6.10156,0.69141 -1.82032,0.46094 -3.38282,1.1289 -4.6875,1.99609 -1.30078,0.875 -2.3125,1.90625 -3.03125,3.11328 -0.71485,1.19922 -1.07813,2.54297 -1.07813,4.02735 0,1.48828 0.29688,2.88281 0.88672,4.1875 0.58594,1.30468 1.39063,2.44531 2.41797,3.42187 1.02734,0.96485 2.22656,1.71875 3.60937,2.26172 1.38282,0.53516 2.86719,0.80469 4.45704,0.80469 m 0,1.53515 c -1.79688,0 -3.48438,-0.32031 -5.07032,-0.96093 -1.58984,-0.63672 -2.95703,-1.50782 -4.10937,-2.61328 -1.15235,-1.09375 -2.0586,-2.38672 -2.72656,-3.875 -0.66407,-1.48438 -1,-3.07032 -1,-4.76172 0,-1.6836 0.39843,-3.21875 1.19531,-4.60938 0.79297,-1.3789 1.91406,-2.5664 3.3789,-3.5664 1.45704,-1 3.19532,-1.78125 5.22266,-2.33985 2.01953,-0.5625 4.23047,-0.84765 6.63672,-0.84765 2.30469,0 4.63281,0.1914 6.98828,0.57421 2.35547,0.38672 4.47656,0.9336 6.375,1.65235 v -4.53125 c 0,-2.04297 -0.30859,-3.92578 -0.92187,-5.64453 -0.61329,-1.71485 -1.4961,-3.17188 -2.64844,-4.375 -1.15235,-1.20313 -2.53516,-2.13672 -4.14453,-2.80469 -1.61328,-0.66406 -3.39453,-0.99609 -5.33594,-0.99609 -1.94922,0 -4.02344,0.41796 -6.22266,1.26562 -2.20312,0.84375 -4.42968,2.0625 -6.68359,3.64844 l -0.91797,-1.22656 C 341.29297,446.73828 345.90234,445 350,445 c 2.19922,0 4.20703,0.35547 6.02344,1.07031 1.8164,0.71875 3.35547,1.74219 4.60937,3.07422 1.25391,1.33203 2.22266,2.94922 2.91406,4.83594 0.69532,1.89844 1.03907,4.01953 1.03907,6.375 v 22.04297 c 0,1.02734 0.41015,1.53515 1.23047,1.53515 v 1.53516 c -0.5625,0 -0.92188,-0.0508 -1.07422,-0.15625 -0.51563,-0.20703 -0.92188,-0.57422 -1.23047,-1.11328 -0.30469,-0.53906 -0.46094,-1.13672 -0.46094,-1.80078 v -3.69141 c -1.84375,2.40625 -4.25,4.26563 -7.21875,5.56641 -2.96875,1.3125 -6.19531,1.96093 -9.67187,1.96093" style="fill:#4c4a4c;fill-opacity:1;fill-rule:nonzero;stroke:none" /><path d="m 407.12891,485.46875 h -1.53516 v -22.19531 c 0,-5.83203 -0.80859,-10.08594 -2.41797,-12.74219 -1.61328,-2.66797 -4.21094,-3.99609 -7.79297,-3.99609 -1.94531,0 -3.85937,0.34375 -5.72265,1.03906 -1.8711,0.6875 -3.59766,1.64453 -5.1836,2.8789 -1.58594,1.22657 -2.97265,2.6836 -4.14453,4.375 -1.18359,1.6875 -2.05469,3.50782 -2.61328,5.45313 v 25.1875 h -1.53516 v -39.85547 h 1.53516 v 10.29297 c 0.81641,-1.58594 1.87109,-3.0625 3.14844,-4.41797 1.27734,-1.35937 2.6875,-2.50781 4.22265,-3.45703 1.53907,-0.94922 3.17578,-1.69141 4.91407,-2.22656 1.74218,-0.53907 3.50781,-0.80469 5.30078,-0.80469 4.09375,0 7.08593,1.47266 8.98437,4.41406 1.89453,2.94531 2.83985,7.5625 2.83985,13.85938 z m 0,0" style="fill:#4c4a4c;fill-opacity:1;fill-rule:nonzero;stroke:none" /><path d="m 435.26172,484.69922 c 1.89062,0 3.74609,-0.3711 5.5625,-1.11328 1.8164,-0.74219 3.44531,-1.70313 4.875,-2.87891 1.42969,-1.17969 2.625,-2.48437 3.57422,-3.91797 0.94531,-1.42969 1.46875,-2.86328 1.57422,-4.30078 v -14.35547 c -0.61329,-1.6914 -1.5,-3.24219 -2.64844,-4.64844 -1.15625,-1.40625 -2.44922,-2.625 -3.87891,-3.64843 -1.43359,-1.02344 -2.99609,-1.82813 -4.68359,-2.41797 -1.69141,-0.58985 -3.38281,-0.88281 -5.07031,-0.88281 -2.71094,0 -5.1211,0.57421 -7.21485,1.72656 -2.10547,1.15234 -3.86719,2.63672 -5.30078,4.45703 -1.4375,1.8125 -2.53516,3.86328 -3.30469,6.14062 -0.76562,2.28125 -1.14843,4.54297 -1.14843,6.79297 0,2.51172 0.46093,4.90625 1.3789,7.1836 0.92188,2.27734 2.17969,4.29687 3.76563,6.0625 1.58203,1.76953 3.45312,3.17578 5.60547,4.22656 2.14843,1.04687 4.45312,1.57422 6.91406,1.57422 m 0,1.53515 c -2.76953,0 -5.32813,-0.58984 -7.6836,-1.76562 -2.35546,-1.17578 -4.39062,-2.73438 -6.10546,-4.68359 -1.71485,-1.94141 -3.04688,-4.14844 -3.99219,-6.60157 -0.94531,-2.45703 -1.42188,-4.96484 -1.42188,-7.53125 0,-2.65625 0.44922,-5.23047 1.34766,-7.71484 0.89062,-2.48438 2.16016,-4.68359 3.80078,-6.60547 1.63672,-1.91797 3.59375,-3.45312 5.87109,-4.60547 2.27735,-1.15234 4.77735,-1.72656 7.48829,-1.72656 1.78906,0 3.46484,0.25781 5.03125,0.76562 1.55859,0.51172 3.01562,1.21485 4.375,2.11329 1.35937,0.89453 2.59765,1.94531 3.72656,3.14843 1.125,1.20313 2.17187,2.4961 3.14844,3.875 v -9.28906 h 1.53125 v 41.54688 c 0,2.60546 -0.48438,4.88281 -1.45704,6.83203 -0.97265,1.9414 -2.27734,3.55859 -3.91796,4.83984 -1.63672,1.27734 -3.51563,2.22656 -5.64063,2.83984 -2.125,0.60938 -4.31641,0.92188 -6.57031,0.92188 -4.71094,0 -8.39063,-0.87109 -11.05469,-2.61328 -2.66016,-1.74219 -4.73437,-4.04688 -6.21875,-6.91016 l 1.45703,-0.46094 c 1.63672,3.02344 3.88281,5.1836 6.71875,6.48829 2.83985,1.30859 5.875,1.96093 9.09766,1.96093 2.20312,0 4.28125,-0.29687 6.22265,-0.88281 1.94532,-0.58594 3.64844,-1.47266 5.10938,-2.65625 1.45703,-1.17187 2.60937,-2.61719 3.45312,-4.33594 0.84375,-1.71093 1.26954,-3.71875 1.26954,-6.02343 v -9.98829 c -0.8711,1.33594 -1.88282,2.55079 -3.03516,3.65235 -1.15234,1.09375 -2.40625,2.05859 -3.76172,2.875 -1.35547,0.82031 -2.77734,1.44531 -4.26172,1.88672 -1.48437,0.42968 -2.99609,0.64843 -4.52734,0.64843" style="fill:#4c4a4c;fill-opacity:1;fill-rule:nonzero;stroke:none" /><path d="m 464.49219,429.40625 h 1.53515 v 50.14844 c 0,1.48828 0.46094,2.66406 1.37891,3.53515 0.92578,0.86719 2.15234,1.30078 3.69141,1.30078 0.55859,0 1.23828,-0.0625 2.03125,-0.1914 0.79296,-0.125 1.51953,-0.29297 2.1875,-0.5 l 0.53515,1.23047 c -0.71484,0.2539 -1.59765,0.47265 -2.64453,0.65625 -1.05078,0.17578 -1.93359,0.26172 -2.65234,0.26172 -1.79297,0 -3.25,-0.57422 -4.375,-1.72657 -1.125,-1.14843 -1.6875,-2.67187 -1.6875,-4.5664 z m 0,0" style="fill:#4c4a4c;fill-opacity:1;fill-rule:nonzero;stroke:none" /><path d="m 513.32031,464.88672 c -0.15234,-2.66016 -0.71875,-5.11719 -1.6875,-7.3711 -0.97265,-2.2539 -2.24219,-4.1875 -3.80469,-5.80078 -1.5625,-1.61328 -3.36328,-2.875 -5.41406,-3.79687 -2.04687,-0.92578 -4.24609,-1.38281 -6.60547,-1.38281 -2.35156,0 -4.55078,0.45703 -6.60156,1.38281 -2.04687,0.92187 -3.85156,2.19922 -5.41406,3.83594 -1.5625,1.64062 -2.80078,3.58593 -3.72266,5.83593 -0.92187,2.25782 -1.46094,4.6875 -1.61328,7.29688 z m -17.20312,21.35156 c -2.60938,0 -5.07813,-0.55859 -7.41016,-1.65234 -2.32812,-1.10547 -4.36719,-2.61328 -6.10547,-4.53125 -1.73828,-1.92188 -3.12109,-4.14844 -4.14453,-6.6836 -1.02734,-2.53125 -1.53516,-5.23437 -1.53516,-8.09765 0,-2.81641 0.48438,-5.44922 1.45704,-7.91016 0.97265,-2.45703 2.32031,-4.60937 4.03515,-6.45312 1.71094,-1.83985 3.71094,-3.28907 5.98828,-4.33594 C 490.67578,445.52344 493.125,445 495.73437,445 c 2.66016,0 5.15625,0.53516 7.48438,1.61328 2.33203,1.07031 4.35547,2.53125 6.07031,4.375 1.71485,1.84375 3.08203,4.01953 4.10547,6.52734 1.02734,2.51172 1.53516,5.19532 1.53516,8.0586 v 0.84765 h -36.47266 c 0.20313,2.5625 0.80469,4.95313 1.80469,7.17969 1,2.22656 2.28906,4.16406 3.875,5.80469 1.58984,1.63672 3.41797,2.92578 5.49219,3.875 2.07421,0.94141 4.26171,1.41797 6.5664,1.41797 1.53516,0 3.03125,-0.20703 4.49219,-0.61328 1.45703,-0.41016 2.82812,-0.98438 4.10937,-1.72657 1.28125,-0.74218 2.40625,-1.625 3.375,-2.65234 0.97657,-1.01953 1.7461,-2.14844 2.3086,-3.38281 l 1.45703,0.38672 c -0.5625,1.38281 -1.37109,2.65625 -2.41797,3.80078 -1.05078,1.15625 -2.27734,2.14844 -3.6875,2.99609 -1.41016,0.84375 -2.94531,1.50781 -4.60937,2 -1.66407,0.48438 -3.36329,0.73047 -5.10547,0.73047" style="fill:#4c4a4c;fill-opacity:1;fill-rule:nonzero;stroke:none" /><path d="m 553.64844,450.42578 h -13.5586 v 34.86719 h -4.98437 v -34.86719 h -13.5625 v -4.43359 h 32.10547 z m 0,0" style="fill:#636161;fill-opacity:1;fill-rule:nonzero;stroke:none" /><path d="m 585.37891,480.86719 v 4.42578 h -26.6836 v -39.30078 h 26.1836 v 4.4375 h -21.19922 v 12.72656 h 18.43359 v 4.15234 h -18.43359 v 13.5586 z m 0,0" style="fill:#636161;fill-opacity:1;fill-rule:nonzero;stroke:none" /><path d="m 588.36328,465.37109 c 0,-2.35937 0.41016,-4.71093 1.24219,-7.05859 0.82812,-2.34375 2.05078,-4.44922 3.65234,-6.30469 1.60938,-1.86719 3.57031,-3.37109 5.89844,-4.51953 2.32031,-1.13672 4.96094,-1.71484 7.91016,-1.71484 3.50781,0 6.51953,0.79297 9.02734,2.38281 2.50781,1.58594 4.37109,3.65234 5.58984,6.19922 l -3.92578,2.54687 c -0.58984,-1.2539 -1.30078,-2.30468 -2.13281,-3.15625 -0.83203,-0.84765 -1.73828,-1.53125 -2.71484,-2.05078 -0.97657,-0.51172 -1.98438,-0.88281 -3.01954,-1.09765 -1.03515,-0.23047 -2.04687,-0.33594 -3.04296,-0.33594 -2.17579,0 -4.10547,0.44922 -5.78125,1.35547 -1.67969,0.90234 -3.09375,2.08203 -4.23829,3.54297 -1.14453,1.45312 -2,3.10156 -2.57031,4.92578 -0.57812,1.82422 -0.86328,3.66015 -0.86328,5.50781 0,2.06641 0.34375,4.03516 1.02734,5.89844 0.67969,1.85937 1.63282,3.51172 2.85157,4.94922 1.21875,1.4375 2.65234,2.58593 4.32031,3.43359 1.66016,0.85156 3.46484,1.27734 5.42187,1.27734 1.03125,0 2.08985,-0.13672 3.17579,-0.39062 1.09375,-0.26172 2.13281,-0.67578 3.13671,-1.2461 0.9961,-0.57031 1.92188,-1.29296 2.79297,-2.16406 0.86719,-0.86328 1.57813,-1.91015 2.13282,-3.12109 l 4.15234,2.26953 c -0.63281,1.47266 -1.50781,2.77344 -2.63672,3.90234 -1.12109,1.125 -2.39453,2.07422 -3.8125,2.84766 -1.42187,0.77344 -2.92969,1.36719 -4.51172,1.77344 -1.58984,0.41015 -3.14453,0.60547 -4.65234,0.60547 -2.69531,0 -5.16406,-0.59375 -7.41406,-1.77344 -2.25782,-1.17188 -4.20313,-2.72266 -5.83985,-4.6211 -1.64844,-1.89453 -2.92187,-4.05468 -3.82031,-6.46875 -0.91016,-2.41796 -1.35547,-4.88671 -1.35547,-7.39453" style="fill:#636161;fill-opacity:1;fill-rule:nonzero;stroke:none" /><path d="m 659.96094,445.99219 v 39.30078 h -4.98047 v -17.875 h -21.64453 v 17.875 h -4.98047 v -39.30078 h 4.98047 v 17 h 21.64453 v -17 z m 0,0" style="fill:#636161;fill-opacity:1;fill-rule:nonzero;stroke:none" /><path transform="matrix(1,0,0,-1,240.3994,431.2184)" d="m -9.625e-4,-3.5e-4 v -67.1875" style="fill:none;stroke:#8f8f8f;stroke-width:13.21399975;stroke-linecap:round;stroke-linejoin:round;stroke-miterlimit:10;stroke-opacity:1" /><path transform="matrix(1,0,0,-1,181.9287,398.0993)" d="M 9.875e-4,0.00164375 V -134.38117" style="fill:none;stroke:#d1d1d1;stroke-width:13.21399975;stroke-linecap:round;stroke-linejoin:round;stroke-miterlimit:10;stroke-opacity:1" /><path transform="matrix(1,0,0,-1,298.8643,464.3376)" d="M -0.00101875,0.0016625 -58.465863,33.11885" style="fill:none;stroke:#dedcdc;stroke-width:13.21399975;stroke-linecap:round;stroke-linejoin:round;stroke-miterlimit:10;stroke-opacity:1" /><path transform="matrix(1,0,0,-1,240.9482,498.4059)" d="M 0.00101875,-3.5e-4 57.915081,34.066056" style="fill:none;stroke:#b5b5b5;stroke-width:13.21399975;stroke-linecap:round;stroke-linejoin:round;stroke-miterlimit:10;stroke-opacity:1" /><path transform="matrix(1,0,0,-1,240.3994,431.2184)" d="M -9.625e-4,-3.5e-4 -58.469713,33.120744" style="fill:none;stroke:#2e94d9;stroke-width:13.21399975;stroke-linecap:round;stroke-linejoin:round;stroke-miterlimit:10;stroke-opacity:1" /><path transform="matrix(1,0,0,-1,181.9287,465.2888)" d="M 9.875e-4,-2.625e-4 58.469737,34.07005" style="fill:none;stroke:#2b3591;stroke-width:13.21399975;stroke-linecap:round;stroke-linejoin:round;stroke-miterlimit:10;stroke-opacity:1" /><path transform="matrix(1,0,0,-1,240.9482,498.4059)" d="M 0.00101875,-3.5e-4 -59.018513,33.116838" style="fill:none;stroke:#3870bf;stroke-width:13.21399975;stroke-linecap:round;stroke-linejoin:round;stroke-miterlimit:10;stroke-opacity:1" /><path transform="matrix(1,0,0,-1,181.9287,532.4802)" d="M 9.875e-4,-2.6875e-4 59.020519,34.07395" style="fill:none;stroke:#2b3591;stroke-width:13.21399975;stroke-linecap:round;stroke-linejoin:round;stroke-miterlimit:10;stroke-opacity:1" /></g></svg>
